<svg width="24" height="15" viewBox="0 0 23.4 14.6" fill="none" xmlns="http://www.w3.org/2000/svg">
<path transform="translate(-0.5, -0.7)" d="M11.5781 15H9.69336V8.42773H2.52539V15H0.650391V0.78125H2.52539V6.89453H9.69336V0.78125H11.5781V15ZM23.7559 15H14.4395V13.7012L19.3613 8.23242C20.0905 7.4056 20.5918 6.73503 20.8652 6.2207C21.1452 5.69987 21.2852 5.16276 21.2852 4.60938C21.2852 3.86719 21.0605 3.25846 20.6113 2.7832C20.1621 2.30794 19.5632 2.07031 18.8145 2.07031C17.916 2.07031 17.2161 2.32747 16.7148 2.8418C16.2201 3.34961 15.9727 4.05924 15.9727 4.9707H14.166C14.166 3.66211 14.5859 2.60417 15.4258 1.79688C16.2721 0.989583 17.4017 0.585938 18.8145 0.585938C20.1361 0.585938 21.181 0.934245 21.9492 1.63086C22.7174 2.32096 23.1016 3.24219 23.1016 4.39453C23.1016 5.79427 22.2096 7.46094 20.4258 9.39453L16.6172 13.5254H23.7559V15Z" fill="#848484"/>
</svg>
