<svg width="16" height="15" viewBox="0 0 16 15" fill="none" xmlns="http://www.w3.org/2000/svg">
<path d="M13.3413 0.159912H2.61031C2.12081 0.159912 1.65136 0.352083 1.30523 0.694149C0.959101 1.03622 0.764648 1.50016 0.764648 1.98391L0.764648 12.589C0.764648 13.0727 0.959101 13.5366 1.30523 13.8787C1.65136 14.2208 2.12081 14.413 2.61031 14.413H13.3413C13.8308 14.413 14.3002 14.2208 14.6463 13.8787C14.9925 13.5366 15.1869 13.0727 15.1869 12.589V1.98391C15.1869 1.50016 14.9925 1.03622 14.6463 0.694149C14.3002 0.352083 13.8308 0.159912 13.3413 0.159912V0.159912ZM14.3348 12.589C14.3346 12.8493 14.2299 13.099 14.0436 13.2831C13.8573 13.4672 13.6047 13.5707 13.3413 13.5709H2.61031C2.47934 13.5716 2.34952 13.5467 2.22831 13.4977C2.1071 13.4487 1.99688 13.3764 1.90399 13.2852C1.81109 13.194 1.73735 13.0855 1.687 12.966C1.63665 12.8465 1.61067 12.7184 1.61057 12.589V11.0583L4.40598 8.70763C4.45548 8.66642 4.51812 8.64382 4.58285 8.64382C4.64758 8.64382 4.71022 8.66642 4.75973 8.70763L6.51079 10.1448C6.59279 10.2123 6.69752 10.2469 6.80412 10.2415C6.91073 10.2362 7.01138 10.1913 7.08602 10.1159L11.2464 5.99823C11.2736 5.9713 11.3062 5.95031 11.3421 5.93662C11.378 5.92294 11.4164 5.91687 11.4549 5.9188C11.4933 5.92074 11.5309 5.93064 11.5652 5.94785C11.5995 5.96507 11.6298 5.98923 11.654 6.01875L14.3348 9.27991V12.5882V12.589ZM14.3348 7.94915L12.3131 5.48979C12.2139 5.36894 12.0901 5.27002 11.9498 5.19946C11.8094 5.12889 11.6557 5.08824 11.4984 5.08014C11.3412 5.07205 11.1839 5.09668 11.0369 5.15246C10.8899 5.20823 10.7564 5.2939 10.6451 5.40391L6.75842 9.25179L5.30189 8.06011C5.09852 7.89264 4.84179 7.80163 4.57708 7.80316C4.31237 7.80469 4.05673 7.89867 3.85536 8.06847L1.61057 9.95631V1.98391C1.60986 1.85397 1.63523 1.72518 1.68522 1.60499C1.73521 1.4848 1.80882 1.3756 1.9018 1.28372C1.99477 1.19183 2.10527 1.11908 2.22688 1.06968C2.3485 1.02028 2.47882 0.995207 2.61031 0.995912H13.3413C13.4722 0.99601 13.6019 1.02168 13.7228 1.07144C13.8437 1.1212 13.9535 1.19408 14.0458 1.28588C14.1381 1.37768 14.2112 1.48661 14.2608 1.6064C14.3104 1.72619 14.3356 1.85448 14.3348 1.98391V7.94915Z" fill="#848484"/>
<path d="M5.30376 1.91333C4.89872 1.91333 4.50278 2.03203 4.16601 2.25442C3.82923 2.4768 3.56675 2.79289 3.41175 3.16271C3.25675 3.53252 3.21619 3.93946 3.29521 4.33205C3.37423 4.72465 3.56927 5.08526 3.85567 5.36831C4.14208 5.65135 4.50698 5.84411 4.90423 5.9222C5.30149 6.00029 5.71325 5.96022 6.08745 5.80703C6.46166 5.65385 6.78149 5.39444 7.00652 5.06162C7.23154 4.72879 7.35165 4.33749 7.35165 3.93721C7.35104 3.40063 7.13509 2.8862 6.75116 2.50678C6.36724 2.12736 5.8467 1.91393 5.30376 1.91333ZM5.30376 5.12129C5.06679 5.12129 4.83514 5.05185 4.63811 4.92174C4.44108 4.79163 4.28751 4.6067 4.19683 4.39034C4.10614 4.17398 4.08242 3.9359 4.12865 3.70621C4.17488 3.47652 4.28899 3.26554 4.45655 3.09994C4.62411 2.93434 4.83759 2.82157 5.07001 2.77588C5.30242 2.73019 5.54333 2.75364 5.76226 2.84327C5.98119 2.93289 6.16831 3.08465 6.29996 3.27937C6.43161 3.47409 6.50189 3.70302 6.50189 3.93721C6.50148 4.25112 6.37512 4.55207 6.15051 4.77404C5.92591 4.99601 5.6214 5.12089 5.30376 5.12129Z" fill="#848484"/>
</svg>
