<svg width="14" height="16" viewBox="0 0 14 16" fill="none" xmlns="http://www.w3.org/2000/svg">
<path d="M9.23834 5.65283C9.01877 5.65283 8.84082 5.8164 8.84082 6.01822V12.9241C8.84082 13.1258 9.01877 13.2895 9.23834 13.2895C9.45791 13.2895 9.63586 13.1258 9.63586 12.9241V6.01822C9.63586 5.8164 9.45791 5.65283 9.23834 5.65283Z" fill="#F05975"/>
<path d="M4.54791 5.65283C4.32834 5.65283 4.15039 5.8164 4.15039 6.01822V12.9241C4.15039 13.1258 4.32834 13.2895 4.54791 13.2895C4.76748 13.2895 4.94543 13.1258 4.94543 12.9241V6.01822C4.94543 5.8164 4.76748 5.65283 4.54791 5.65283Z" fill="#F05975"/>
<path d="M1.12898 4.64494V13.6474C1.12898 14.1795 1.34124 14.6792 1.71204 15.0378C2.08113 15.3973 2.59479 15.6014 3.13235 15.6023H10.6533C11.191 15.6014 11.7047 15.3973 12.0736 15.0378C12.4444 14.6792 12.6567 14.1795 12.6567 13.6474V4.64494C13.3938 4.4651 13.8714 3.81054 13.7728 3.1153C13.674 2.4202 13.0298 1.90023 12.2671 1.90008H10.2319V1.44334C10.2342 1.05926 10.069 0.690438 9.77319 0.419106C9.47739 0.147917 9.07553 -0.00309207 8.65769 4.80094e-05H5.12796C4.71011 -0.00309207 4.30826 0.147917 4.01246 0.419106C3.71665 0.690438 3.55144 1.05926 3.55377 1.44334V1.90008H1.51857C0.755855 1.90023 0.111615 2.4202 0.0128595 3.1153C-0.0857406 3.81054 0.391888 4.4651 1.12898 4.64494ZM10.6533 14.8715H3.13235C2.45271 14.8715 1.92399 14.3348 1.92399 13.6474V4.67706H11.8617V13.6474C11.8617 14.3348 11.3329 14.8715 10.6533 14.8715ZM4.34878 1.44334C4.34614 1.25308 4.42751 1.06996 4.5744 0.93565C4.72113 0.80134 4.92082 0.727548 5.12796 0.730831H8.65769C8.86483 0.727548 9.06451 0.80134 9.21125 0.93565C9.35814 1.06982 9.4395 1.25308 9.43686 1.44334V1.90008H4.34878V1.44334ZM1.51857 2.63087H12.2671C12.6623 2.63087 12.9826 2.92532 12.9826 3.28857C12.9826 3.65182 12.6623 3.94628 12.2671 3.94628H1.51857C1.12339 3.94628 0.803058 3.65182 0.803058 3.28857C0.803058 2.92532 1.12339 2.63087 1.51857 2.63087Z" fill="#F05975"/>
<path d="M6.89264 5.65283C6.67307 5.65283 6.49512 5.8164 6.49512 6.01822V12.9241C6.49512 13.1258 6.67307 13.2895 6.89264 13.2895C7.11221 13.2895 7.29016 13.1258 7.29016 12.9241V6.01822C7.29016 5.8164 7.11221 5.65283 6.89264 5.65283Z" fill="#F05975"/>
</svg>
