<svg width="11" height="15" viewBox="0 0 11 15" fill="none" xmlns="http://www.w3.org/2000/svg">
<path d="M0.493164 14.8799V0.661133H5.1416C6.68457 0.661133 7.84342 0.980143 8.61816 1.61816C9.39941 2.25618 9.79004 3.2002 9.79004 4.4502C9.79004 5.11426 9.60124 5.70345 9.22363 6.21777C8.84603 6.72559 8.33171 7.11947 7.68066 7.39941C8.44889 7.61426 9.05436 8.02441 9.49707 8.62988C9.94629 9.22884 10.1709 9.94499 10.1709 10.7783C10.1709 12.0544 9.75749 13.057 8.93066 13.7861C8.10384 14.5153 6.93522 14.8799 5.4248 14.8799H0.493164ZM2.36816 8.22949V13.3467H5.46387C6.33626 13.3467 7.02311 13.1221 7.52441 12.6729C8.03223 12.2171 8.28613 11.5921 8.28613 10.7979C8.28613 9.08561 7.35514 8.22949 5.49316 8.22949H2.36816ZM2.36816 6.72559H5.2002C6.02051 6.72559 6.6748 6.52051 7.16309 6.11035C7.65788 5.7002 7.90527 5.14355 7.90527 4.44043C7.90527 3.65918 7.67741 3.09277 7.22168 2.74121C6.76595 2.38314 6.07259 2.2041 5.1416 2.2041H2.36816V6.72559Z" fill="#848484"/>
</svg>
