<svg width="24" height="16" viewBox="0 0 22.8 14" fill="none" xmlns="http://www.w3.org/2000/svg">
<path transform="translate(-0.5, -0.7)" d="M11.5781 15H9.69336V8.42773H2.52539V15H0.650391V0.78125H2.52539V6.89453H9.69336V0.78125H11.5781V15ZM17.0664 7.01172H18.4238C19.2767 6.9987 19.9473 6.77409 20.4355 6.33789C20.9238 5.90169 21.168 5.3125 21.168 4.57031C21.168 2.90365 20.3379 2.07031 18.6777 2.07031C17.8965 2.07031 17.2715 2.29492 16.8027 2.74414C16.3405 3.18685 16.1094 3.77604 16.1094 4.51172H14.3027C14.3027 3.38542 14.7129 2.45117 15.5332 1.70898C16.36 0.960286 17.4082 0.585938 18.6777 0.585938C20.0189 0.585938 21.0703 0.940755 21.832 1.65039C22.5938 2.36003 22.9746 3.34635 22.9746 4.60938C22.9746 5.22786 22.7728 5.82682 22.3691 6.40625C21.972 6.98568 21.4284 7.41862 20.7383 7.70508C21.5195 7.95247 22.1217 8.36263 22.5449 8.93555C22.9746 9.50846 23.1895 10.2083 23.1895 11.0352C23.1895 12.3112 22.7728 13.3236 21.9395 14.0723C21.1061 14.821 20.0221 15.1953 18.6875 15.1953C17.3529 15.1953 16.2656 14.834 15.4258 14.1113C14.5924 13.3887 14.1758 12.4349 14.1758 11.25H15.9922C15.9922 11.9987 16.2363 12.5977 16.7246 13.0469C17.2129 13.4961 17.8672 13.7207 18.6875 13.7207C19.5599 13.7207 20.2272 13.4928 20.6895 13.0371C21.1517 12.5814 21.3828 11.9271 21.3828 11.0742C21.3828 10.2474 21.1289 9.61263 20.6211 9.16992C20.1133 8.72721 19.3809 8.49935 18.4238 8.48633H17.0664V7.01172Z" fill="#848484"/>
</svg>
