<svg width="16" height="15" viewBox="0 0 16 15" fill="none" xmlns="http://www.w3.org/2000/svg">
<path d="M13.8331 6.85943L12.6365 5.67687C12.5223 5.5641 12.3676 5.50073 12.2062 5.50073C12.0448 5.50073 11.89 5.5641 11.7759 5.67687C11.6618 5.78965 11.5977 5.9426 11.5977 6.10209C11.5977 6.26158 11.6618 6.41453 11.7759 6.52731L12.9725 7.70987C13.2923 8.00548 13.5486 8.36164 13.7262 8.75716C13.9039 9.15268 13.9992 9.57947 14.0065 10.0121C14.0138 10.4448 13.9329 10.8745 13.7687 11.2756C13.6045 11.6768 13.3604 12.0412 13.0508 12.3472C12.7412 12.6532 12.3724 12.8945 11.9665 13.0567C11.5606 13.219 11.1258 13.2989 10.688 13.2917C10.2502 13.2845 9.81833 13.1903 9.41812 13.0147C9.01791 12.8392 8.65751 12.5859 8.35839 12.2699L7.16179 11.0873C7.04768 10.9745 6.89291 10.9112 6.73153 10.9112C6.57015 10.9112 6.41538 10.9745 6.30127 11.0873C6.18715 11.2001 6.12305 11.353 6.12305 11.5125C6.12305 11.672 6.18715 11.825 6.30127 11.9377L7.50094 13.1233C8.34271 13.9496 9.4816 14.4122 10.668 14.4099C11.8544 14.4076 12.9914 13.9406 13.8299 13.1111C14.6684 12.2817 15.1399 11.1575 15.1411 9.98503C15.1422 8.81257 14.673 7.68747 13.8361 6.85638L13.8331 6.85943Z" fill="#848484"/>
<path d="M9.55322 2.62919L8.35354 1.44359C7.50948 0.62893 6.37442 0.176045 5.19464 0.183189C4.01485 0.190332 2.88549 0.656927 2.0516 1.48174C1.2177 2.30656 0.746523 3.42306 0.740297 4.58901C0.734071 5.75496 1.1933 6.87632 2.01834 7.70979L3.21571 8.89235C3.32982 9.00512 3.48459 9.06848 3.64597 9.06848C3.80736 9.06848 3.96213 9.00512 4.07624 8.89235C4.19036 8.77957 4.25446 8.62661 4.25446 8.46712C4.25446 8.30764 4.19036 8.15468 4.07624 8.04191L2.87887 6.85859C2.30028 6.24732 1.98473 5.43776 1.99885 4.60085C2.01296 3.76395 2.35565 2.96523 2.95454 2.37337C3.55343 1.7815 4.36163 1.44283 5.20847 1.42888C6.05531 1.41493 6.87449 1.72678 7.49301 2.29859L8.68961 3.48115C8.74611 3.53699 8.81319 3.58128 8.88701 3.6115C8.96084 3.64172 9.03996 3.65728 9.11987 3.65728C9.19978 3.65728 9.27891 3.64172 9.35273 3.6115C9.42656 3.58128 9.49364 3.53699 9.55014 3.48115C9.60664 3.4253 9.65147 3.35901 9.68204 3.28605C9.71262 3.21309 9.72836 3.1349 9.72836 3.05593C9.72836 2.97695 9.71262 2.89876 9.68204 2.8258C9.65147 2.75284 9.60664 2.68655 9.55014 2.63071L9.55322 2.62919Z" fill="#848484"/>
<path d="M9.89891 8.38168L6.81513 5.33409C6.70101 5.22131 6.54624 5.15796 6.38485 5.15796C6.22347 5.15796 6.0687 5.22131 5.95459 5.33409C5.84047 5.44686 5.77637 5.59982 5.77637 5.7593C5.77637 5.91879 5.84047 6.07176 5.95459 6.18453L9.03837 9.23213C9.15249 9.3449 9.30726 9.40826 9.46865 9.40826C9.63003 9.40826 9.7848 9.3449 9.89891 9.23213C10.013 9.11935 10.0771 8.9664 10.0771 8.80691C10.0771 8.64742 10.013 8.49446 9.89891 8.38168Z" fill="#848484"/>
</svg>
